PathFileType	4	(X/Y/Z)	Patient4_TMGait_0pt4_03_left_15.trc.trc
DataRate	CameraRate	NumFrames	NumMarkers	Units	OrigDataRate	OrigDataStartFrame	OrigNumFrames
71.794871794872	71.794871794872	4	33	mm	71.794871794872	36	       141
Frame#	Time	Sacral			L.Shoulder			Chest			R.Shoulder			Neck			R.ASIS			L.ASIS			R.Thigh.Superior			R.Thigh.Lateral			R.Thigh.Inferior			R.Patella			L.Thigh.Superior			L.Thigh.Lateral			L.Thigh.Inferior			L.Patella			L.Shank.Superior			L.Shank.Lateral			L.Shank.Inferior			R.Shank.Superior			R.Shank.Lateral			R.Shank.Inferior			R.Heel			R.Midfoot.Superior			R.Midfoot.Lateral			R.Toe			L.Heel			L.Midfoot.Lateral			L.Midfoot.Superior			L.Toe			L.Elbow			L.Wrist			R.Elbow			R.Wrist			
		X1	Y1	Z1	X2	Y2	Z2	X3	Y3	Z3	X4	Y4	Z4	X5	Y5	Z5	X6	Y6	Z6	X7	Y7	Z7	X8	Y8	Z8	X9	Y9	Z9	X10	Y10	Z10	X11	Y11	Z11	X12	Y12	Z12	X13	Y13	Z13	X14	Y14	Z14	X15	Y15	Z15	X16	Y16	Z16	X17	Y17	Z17	X18	Y18	Z18	X19	Y19	Z19	X20	Y20	Z20	X21	Y21	Z21	X22	Y22	Z22	X23	Y23	Z23	X24	Y24	Z24	X25	Y25	Z25	X26	Y26	Z26	X27	Y27	Z27	X28	Y28	Z28	X29	Y29	Z29	X30	Y30	Z30	X31	Y31	Z31	X32	Y32	Z32	X33	Y33	Z33	

36	19.857500000000	848.513113018451	1009.284590811143	475.394917962090	1021.133695672712	1425.178544106501	269.319138364316	1139.365470392398	1358.279708412753	420.378865848174	1077.494187389217	1439.159746491274	600.013392524124	1020.957326607189	1492.283729553019	424.631413746098	1081.313453318607	938.717720902534	579.877807949065	1052.708740253186	955.670031462631	306.382420665940	1080.473590670452	725.704161242852	559.592826376878	979.039207426352	632.352028534266	626.577866762164	1042.195477989061	563.270277780117	550.866969066467	1024.302536332511	470.355121254019	563.709682701145	1123.888757479379	762.215408733805	341.849292189384	1056.251330392470	635.280916791808	276.371632980557	1154.240125922587	570.071489692982	337.073322347976	1165.187075593184	497.750567619497	342.362082847862	1137.979220851657	423.809902746477	333.708741741224	1050.547251682896	308.839447670928	281.247137023001	1105.621246500715	195.890458835406	345.651827921991	969.091371566035	394.256780651983	572.466982496317	870.212941756661	318.128078493799	637.855738981894	884.619639982539	211.655008050505	580.126583212028	714.848696966387	73.874860696687	554.922138870316	890.222986640047	100.244916413247	593.203238395552	795.149296764200	50.515470062147	628.224806766864	1000.966268893934	37.565616826500	621.017200588485	982.077135479094	39.650443469528	384.934824825769	1054.141345799808	36.772039431988	303.093152613245	1137.999587795375	97.380820066379	329.076287560157	1265.628424382392	44.647713704198	296.119692798526	925.937752603065	1083.648391501397	166.301152295026	979.149145284318	825.226180464088	162.793510513569	1141.594044772482	1097.442693501537	719.286170308269	1370.775726397579	1030.866409097528	633.077270948912	
37	19.871428571429	848.840144063686	1009.819459815213	471.268183342557	1021.985602213792	1425.693608982356	265.370598773328	1139.675301701923	1359.061833484050	416.944871538524	1077.094572618770	1440.078760022481	596.245609679482	1021.221393105232	1492.917880502158	420.658965286734	1081.380749769511	939.654828627832	576.649362688951	1053.846015598953	956.039650755176	303.137158919136	1082.387657413771	726.654553832396	557.072845257754	982.121499494631	632.651603929426	624.438091885270	1046.479908356641	563.695062289712	549.159895539788	1029.175295428080	469.457770516614	563.499589563054	1124.208748734362	761.726200546042	338.464560037349	1054.955894206160	634.954301583254	274.225439605342	1152.565847349018	569.233352452060	334.796778259758	1162.936689702367	497.075820042037	340.851044822554	1135.318245239236	423.138642492872	332.489974351760	1047.335105179848	308.566209389877	280.247197692418	1101.268347832813	195.522107152873	345.288960719562	971.937558655908	394.277277334041	572.223682077421	870.879052329159	320.721309411721	637.141813084681	883.732349057936	213.494633669488	580.462189417135	711.041791641481	79.455569266321	555.292590464651	886.935135040296	100.782859806495	593.398196122072	790.678883780732	53.477479839530	628.393322634291	995.551107441538	37.278313433941	620.891385259744	976.579080032630	39.717930430630	384.875018515368	1048.628449270984	36.754092964355	303.040780876343	1132.586042378189	97.262161077222	329.022001818661	1260.197145077024	44.190815708239	296.018297697370	929.986461694581	1083.564299436298	160.706129857917	991.929865850264	827.024546369807	157.258809340439	1138.612402350473	1097.860916185829	716.183191231934	1366.299481210703	1020.396409408063	633.761070050304	
38	19.885357142857	849.055840325858	1010.315096509388	467.119923479238	1023.005488784340	1426.189589869113	261.388832276036	1139.970537739557	1359.789748090864	413.593876709042	1076.516114135487	1440.922208066206	592.510534227111	1021.459636852409	1493.511917944730	416.674472450065	1081.216432013800	940.569048338953	573.435559563342	1054.904826187646	956.315532996900	299.975480698832	1084.722841227161	727.734524042301	554.734371828578	985.855944249733	632.879465282594	622.440243218228	1051.688999067241	564.170924996056	547.676579789204	1035.073711598907	468.542443629562	563.549409290665	1124.212823173211	761.049196001658	335.178778151526	1053.439891705133	634.651037572666	272.004146577688	1150.521592095462	568.367611973091	332.607245941337	1160.284035887808	496.351395842404	339.263607646049	1132.288864422427	422.443543009512	331.151813002295	1043.773311671140	308.209442593955	279.197282383722	1096.728847535793	195.133387495966	344.852738003710	975.705286096546	394.337698609770	572.147817687670	872.372832302234	323.610046379044	636.523883905696	883.496202183629	215.641382800732	580.920406428343	707.707887250907	85.968738616694	555.693156446458	883.985244260278	101.492682541206	593.579940902571	786.454990677033	57.089300196122	628.581652727809	990.097780619636	36.913228708751	620.745724360037	971.010983356374	39.754236378891	384.822170813264	1043.047498053466	36.688932868923	302.988834707710	1127.101736464379	97.102157033622	328.955419658364	1254.700182287367	43.711657297675	295.944098985370	934.055603118731	1083.610345436559	154.907951082730	1005.029483708172	829.327796461891	151.683459592745	1135.099143112573	1098.156450340640	713.083912278512	1360.736699023631	1009.412573631992	634.752762836309	
39	19.899285714286	849.134802861562	1010.760265744387	462.990206583100	1024.184192867527	1426.644525268694	257.408038305381	1140.249711167639	1360.424586844091	410.346435782851	1075.785560353691	1441.672252389310	588.829084896927	1021.681366025015	1494.050209400674	412.702225385056	1080.784286822472	941.433761223579	570.244617647505	1055.838956514107	956.501546441770	296.902021832701	1087.471773623746	728.981576452091	552.580457484579	990.279156854828	633.060684546488	620.614889282818	1057.854261497172	564.750159981814	546.441423420343	1042.022068320264	467.681426043297	563.845561324961	1123.903281832057	760.261650016275	332.009447997549	1051.726284224950	634.401648855912	269.702333783333	1148.149038106083	567.504714818145	330.461875542960	1157.271831220429	495.602748406274	337.566781397403	1128.935888597018	421.745310528688	329.672557916208	1039.899829575908	307.797042605480	278.066128330252	1092.029511167403	194.743972735287	344.321522040675	980.457246559519	394.477494343355	572.223162325929	874.784368877754	326.838014730757	636.002184751125	883.972345691452	218.162275238173	581.481440299101	704.948260468898	93.552950762226	556.101185822364	881.426189919608	102.510241241069	593.765791160793	782.540523180979	61.495092129957	628.775227008130	984.631521622368	36.436626704214	620.601713664934	965.398790764673	39.769310608684	384.759294379457	1037.425219549954	36.590155614094	302.920889514715	1121.566393812893	96.924359247862	328.858146712717	1249.160881776200	43.249449885126	295.884946606516	938.251022675071	1083.744846578364	148.912991752943	1018.389006295566	832.093202549641	146.122224648889	1131.007675981109	1098.308421815788	710.012041438348	1353.993767383142	998.063846562498	636.039320932833	
